<svg width="1063" height="297" viewBox="0 0 1063 297" fill="none" xmlns="http://www.w3.org/2000/svg">
<g clip-path="url(#clip0)">
<path fill-rule="evenodd" clip-rule="evenodd" d="M208.2 49.3H206.1H197.4V0H148.1V49.3H98.6999V0H49.4999V49.3H0.199951V98.6H49.4999V197.4H0.199951V246.7H49.4999V296H98.7999V246.7H148.1V296H197.4V246.7H206.1C259.8 247.3 303.9 202.3 304.5 148.7C305.1 95.1 262 49.9 208.2 49.3ZM207.7 197.4C207.2 197.4 206.7 197.4 206.2 197.4H98.8999V98.8H206.1C233 98.4 255.1 120.1 255.5 147C255.9 173.7 234.5 197 207.7 197.4Z" fill="url(#paint0_linear)"/>
<path d="M364.9 226.1V69.9H421.6C434.4 69.9 445.5 71.9 455.1 76C464.7 80.1 472.7 85.6 479.1 92.7C485.5 99.7 490.4 108 493.6 117.4C496.8 126.8 498.5 137 498.5 147.7C498.5 159.6 496.7 170.3 493.1 179.9C489.5 189.5 484.3 197.7 477.6 204.5C470.9 211.3 462.8 216.6 453.3 220.4C443.8 224.2 433.3 226 421.6 226L364.9 226.1ZM468 147.8C468 140.3 466.9 133.4 464.9 127.2C462.9 120.9 459.8 115.5 455.8 110.9C451.8 106.3 446.9 102.8 441.2 100.4C435.5 97.9 428.8 96.7 421.5 96.7H395.1V199.5H421.5C429 199.5 435.6 198.1 441.4 195.5C447.1 192.9 452 189.3 455.9 184.6C459.8 180 462.7 174.6 464.8 168.2C466.9 161.9 468 155.1 468 147.8Z" fill="white"/>
<path d="M633.1 198.1C625.7 211.5 615 218.4 612.8 219.7C599.3 228 586 228.2 579.5 228.2C570.3 228.2 561.9 226.6 554.5 223.4C547.1 220.2 540.7 216 535.4 210.6C530.1 205.1 526.1 198.9 523.2 191.7C520.4 184.5 518.9 177 518.9 169C518.9 160.8 520.3 153 523.1 145.8C525.9 138.5 529.9 132.2 535.2 126.7C540.5 121.2 546.9 116.9 554.5 113.7C562.1 110.5 570.5 108.8 579.9 108.8C589.2 108.8 597.7 110.5 605.1 113.7C612.5 116.9 618.8 121.3 624 126.6C629.2 132.1 633.1 138.3 635.9 145.5C638.6 152.7 640 160.2 640 167.9C640 169.8 640 171.6 639.9 173.4C639.8 175.2 639.6 176.6 639.3 177.8H550.2C550.7 182.4 551.8 186.4 553.5 189.9C555.3 193.4 557.5 196.4 560.3 199C563.1 201.5 566.2 203.4 569.7 204.7C573.2 206.1 576.9 206.6 580.7 206.6C586.5 206.6 592.1 205.1 597.3 202.3C602.5 199.5 606.1 195.7 608 191C617.5 191 627 191 636.5 191.1C635.7 193 634.7 195.4 633.1 198.1ZM609.4 158.8C608.6 150.1 605.5 143.2 599.9 138.1C594.3 132.9 587.4 130.3 579.4 130.3C575.4 130.3 571.7 131 568.3 132.3C564.9 133.7 561.8 135.6 559.2 138.1C556.6 140.6 554.4 143.6 552.7 147.2C551 150.7 550.1 154.6 549.8 158.9L609.4 158.8Z" fill="white"/>
<path d="M729.1 136.3C720.1 136.5 712.2 138.1 705.2 141.5C698.2 144.8 693.1 149.8 690 156.3V226H660.5V110.8H687.6V135.4C689.6 131.4 692.1 127.9 694.9 124.7C697.7 121.6 700.6 118.8 704 116.4C707.2 114.1 710.5 112.2 713.7 111C717 109.7 720.2 109.2 723.2 109.2C724.9 109.2 726 109.2 726.8 109.2C727.6 109.2 728.4 109.3 729.1 109.4V136.3Z" fill="white"/>
<path d="M749.8 226.1V110.8H779.3V226L749.8 226.1Z" fill="white"/>
<path d="M941.7 226.1V110.8H971.2V226L941.7 226.1Z" fill="white"/>
<path d="M1036.4 227.9C1018.2 227.9 1009.2 218 1009.2 198.2V136H993.1V111H1009.2V69.6H1037.8V111.1H1062.8V136.1H1037.8V194.1C1037.8 199.9 1040.4 202.9 1045.7 202.9C1051.7 202.9 1057.9 201.2 1064.2 198V222.6C1057 225.9 1045.5 227.9 1036.4 227.9Z" fill="white"/>
<path d="M764.6 98.6C772.5 98.6 778.8 92.2 778.8 84.4C778.8 76.6 772.4 70.2 764.6 70.2C756.7 70.2 750.4 76.6 750.4 84.4C750.4 92.2 756.7 98.6 764.6 98.6Z" fill="white"/>
<path d="M956.3 98.5C964.2 98.5 970.5 92.1 970.5 84.3C970.5 76.5 964.1 70 956.3 70C948.4 70 942.1 76.4 942.1 84.2C942.1 92 948.4 98.5 956.3 98.5Z" fill="white"/>
<path d="M956.3 98.5C964.2 98.5 970.5 92.1 970.5 84.3C970.5 76.5 964.1 70 956.3 70C948.4 70 942.1 76.4 942.1 84.2C942.1 92 948.4 98.5 956.3 98.5Z" fill="white"/>
<path d="M956.3 98.5C964.2 98.5 970.5 92.1 970.5 84.3C970.5 76.5 964.1 70 956.3 70C948.4 70 942.1 76.4 942.1 84.2C942.1 92 948.4 98.5 956.3 98.5Z" fill="white"/>
<path d="M866.6 228.1C857.6 228.1 849.8 226.1 842.8 222.1C835.8 218.1 832.8 214.2 830.2 208.6V225.9H800.2V69.5H830V129.6C834.2 122.5 839.6 116.9 846.4 113C853.1 109.1 861.1 107.1 870.1 107.1C877.7 107.1 884.6 108.8 890.8 112C897 115.3 902.4 119.7 907 125.1C911.6 130.6 915 137.1 917.5 144.5C919.9 151.9 921.2 159.8 921.2 167.9C921.2 176.4 919.8 184.3 917.1 191.6C914.4 198.9 910.5 205.2 905.6 210.7C900.7 216.2 894.9 220.4 888.2 223.5C881.5 226.5 874.3 228.1 866.6 228.1ZM858.4 202.7C863.2 202.7 867.5 201.7 871.5 199.9C875.5 198.1 878.9 195.5 881.7 192.4C884.5 189.3 886.8 185.7 888.3 181.5C889.9 177.3 890.6 172.8 890.6 168.2C890.6 163.4 889.8 159 888.4 154.6C886.9 150.3 884.8 146.5 882.1 143.2C879.4 139.9 876.2 137.4 872.4 135.4C868.7 133.5 864.6 132.5 860.1 132.5C853.4 132.5 847.4 134.7 842.2 139.1C836.9 143.5 832.9 148.8 830 155.3V183C831.1 186 832.5 188.6 834.6 191C836.6 193.3 838.9 195.4 841.4 197.1C843.9 198.9 846.7 200.1 849.7 201.1C852.6 202.2 855.5 202.7 858.4 202.7Z" fill="white"/>
</g>
<defs>
<linearGradient id="paint0_linear" x1="152.375" y1="0" x2="152.375" y2="296.099" gradientUnits="userSpaceOnUse">
<stop stop-color="#75FFF4"/>
<stop offset="0.5104" stop-color="#00CFBE"/>
<stop offset="0.9583" stop-color="#01AFA0"/>
</linearGradient>
<clipPath id="clip0">
<rect width="1063" height="297" fill="white"/>
</clipPath>
</defs>
</svg>
