<svg width="1064" height="296" viewBox="0 0 1064 296" fill="none" xmlns="http://www.w3.org/2000/svg">
<path fill-rule="evenodd" clip-rule="evenodd" d="M208 49.3H205.9H197.2V0H147.9V49.3H98.4999V0H49.2999V49.3H0V98.6H49.2999V197.4H0V246.7H49.2999V296H98.5999V246.7H147.9V296H197.2V246.7H205.9C259.6 247.3 303.7 202.3 304.3 148.7C304.9 95.1 261.8 49.9 208 49.3ZM207.5 197.4C207 197.4 206.5 197.4 206 197.4H98.7V98.8H205.9C232.8 98.4 254.9 120.1 255.3 147C255.7 173.7 234.3 197 207.5 197.4Z" fill="url(#paint0_linear)"/>
<path d="M364.7 226.1V69.9H421.4C434.2 69.9 445.3 71.9 454.9 76C464.5 80.1 472.5 85.6 478.9 92.7C485.3 99.7 490.2 108 493.4 117.4C496.6 126.8 498.3 137 498.3 147.7C498.3 159.6 496.5 170.3 492.9 179.9C489.3 189.5 484.1 197.7 477.4 204.5C470.7 211.3 462.6 216.6 453.1 220.4C443.6 224.2 433.1 226 421.4 226L364.7 226.1ZM467.8 147.8C467.8 140.3 466.7 133.4 464.7 127.2C462.7 120.9 459.6 115.5 455.6 110.9C451.6 106.3 446.7 102.8 441 100.4C435.3 97.9 428.6 96.7 421.3 96.7H394.9V199.5H421.3C428.8 199.5 435.4 198.1 441.2 195.5C446.9 192.9 451.8 189.3 455.7 184.6C459.6 180 462.5 174.6 464.6 168.2C466.7 161.9 467.8 155.1 467.8 147.8Z" fill="black"/>
<path d="M632.9 198.1C625.5 211.5 614.8 218.4 612.6 219.7C599.1 228 585.8 228.2 579.3 228.2C570.1 228.2 561.7 226.6 554.3 223.4C546.9 220.2 540.5 216 535.2 210.6C529.9 205.1 525.9 198.9 523 191.7C520.2 184.5 518.7 177 518.7 169C518.7 160.8 520.1 153 522.9 145.8C525.7 138.5 529.7 132.2 535 126.7C540.3 121.2 546.7 116.9 554.3 113.7C561.9 110.5 570.3 108.8 579.7 108.8C589 108.8 597.5 110.5 604.9 113.7C612.3 116.9 618.6 121.3 623.8 126.6C629 132.1 632.9 138.3 635.7 145.5C638.4 152.7 639.8 160.2 639.8 167.9C639.8 169.8 639.8 171.6 639.7 173.4C639.6 175.2 639.4 176.6 639.1 177.8H550C550.5 182.4 551.6 186.4 553.3 189.9C555.1 193.4 557.3 196.4 560.1 199C562.9 201.5 566 203.4 569.5 204.7C573 206.1 576.7 206.6 580.5 206.6C586.3 206.6 591.9 205.1 597.1 202.3C602.3 199.5 605.9 195.7 607.8 191C617.3 191 626.8 191 636.3 191.1C635.5 193 634.5 195.4 632.9 198.1ZM609.2 158.8C608.4 150.1 605.3 143.2 599.7 138.1C594.1 132.9 587.2 130.3 579.2 130.3C575.2 130.3 571.5 131 568.1 132.3C564.7 133.7 561.6 135.6 559 138.1C556.4 140.6 554.2 143.6 552.5 147.2C550.8 150.7 549.9 154.6 549.6 158.9L609.2 158.8Z" fill="black"/>
<path d="M728.9 136.3C719.9 136.5 712 138.1 705 141.5C698 144.8 692.9 149.8 689.8 156.3V226H660.3V110.8H687.4V135.4C689.4 131.4 691.9 127.9 694.7 124.7C697.5 121.6 700.4 118.8 703.8 116.4C707 114.1 710.3 112.2 713.5 111C716.8 109.7 720 109.2 723 109.2C724.7 109.2 725.8 109.2 726.6 109.2C727.4 109.2 728.2 109.3 728.9 109.4V136.3Z" fill="black"/>
<path d="M749.6 226.1V110.8H779.1V226L749.6 226.1Z" fill="black"/>
<path d="M941.5 226.1V110.8H971V226L941.5 226.1Z" fill="black"/>
<path d="M1036.2 227.9C1018 227.9 1009 218 1009 198.2V136H992.9V111H1009V69.6H1037.6V111.1H1062.6V136.1H1037.6V194.1C1037.6 199.9 1040.2 202.9 1045.5 202.9C1051.5 202.9 1057.7 201.2 1064 198V222.6C1056.8 225.9 1045.3 227.9 1036.2 227.9Z" fill="black"/>
<path d="M764.4 98.6C772.3 98.6 778.6 92.2 778.6 84.4C778.6 76.6 772.2 70.2 764.4 70.2C756.5 70.2 750.2 76.6 750.2 84.4C750.2 92.2 756.5 98.6 764.4 98.6Z" fill="black"/>
<path d="M956.1 98.5C964 98.5 970.3 92.1 970.3 84.3C970.3 76.5 963.9 70 956.1 70C948.2 70 941.9 76.4 941.9 84.2C941.9 92 948.2 98.5 956.1 98.5Z" fill="black"/>
<path d="M956.1 98.5C964 98.5 970.3 92.1 970.3 84.3C970.3 76.5 963.9 70 956.1 70C948.2 70 941.9 76.4 941.9 84.2C941.9 92 948.2 98.5 956.1 98.5Z" fill="black"/>
<path d="M956.1 98.5C964 98.5 970.3 92.1 970.3 84.3C970.3 76.5 963.9 70 956.1 70C948.2 70 941.9 76.4 941.9 84.2C941.9 92 948.2 98.5 956.1 98.5Z" fill="black"/>
<path d="M866.4 228.1C857.4 228.1 849.6 226.1 842.6 222.1C835.6 218.1 832.6 214.2 830 208.6V225.9H800V69.5H829.8V129.6C834 122.5 839.4 116.9 846.2 113C852.9 109.1 860.9 107.1 869.9 107.1C877.5 107.1 884.4 108.8 890.6 112C896.8 115.3 902.2 119.7 906.8 125.1C911.4 130.6 914.8 137.1 917.3 144.5C919.7 151.9 921 159.8 921 167.9C921 176.4 919.6 184.3 916.9 191.6C914.2 198.9 910.3 205.2 905.4 210.7C900.5 216.2 894.7 220.4 888 223.5C881.3 226.5 874.1 228.1 866.4 228.1ZM858.2 202.7C863 202.7 867.3 201.7 871.3 199.9C875.3 198.1 878.7 195.5 881.5 192.4C884.3 189.3 886.6 185.7 888.1 181.5C889.7 177.3 890.4 172.8 890.4 168.2C890.4 163.4 889.6 159 888.2 154.6C886.7 150.3 884.6 146.5 881.9 143.2C879.2 139.9 876 137.4 872.2 135.4C868.5 133.5 864.4 132.5 859.9 132.5C853.2 132.5 847.2 134.7 842 139.1C836.7 143.5 832.7 148.8 829.8 155.3V183C830.9 186 832.3 188.6 834.4 191C836.4 193.3 838.7 195.4 841.2 197.1C843.7 198.9 846.5 200.1 849.5 201.1C852.4 202.2 855.3 202.7 858.2 202.7Z" fill="black"/>
<defs>
<linearGradient id="paint0_linear" x1="152.175" y1="0" x2="152.175" y2="296.099" gradientUnits="userSpaceOnUse">
<stop stop-color="#75FFF4"/>
<stop offset="0.5104" stop-color="#00CFBE"/>
<stop offset="0.9583" stop-color="#01AFA0"/>
</linearGradient>
</defs>
</svg>
