<?xml version="1.0" encoding="UTF-8"?>
<svg width="528px" height="152px" viewBox="0 0 528 152" version="1.1" xmlns="http://www.w3.org/2000/svg" xmlns:xlink="http://www.w3.org/1999/xlink">
    <!-- Generator: Sketch 54.1 (76490) - https://sketchapp.com -->
    <title>chart-watermark</title>
    <desc>Created with Sketch.</desc>
    <g id="Page-1" stroke="none" stroke-width="1" fill="none" fill-rule="evenodd">
        <g id="chart-watermark" fill="#F4F4F4" fill-rule="nonzero">
            <path d="M105.507938,25.8443921 L101.074071,25.8443921 L101.074071,0.707865169 L75.8281748,0.707865169 L75.8281748,25.8443921 L50.5822789,25.8443921 L50.5822789,0.707865169 L25.2458959,0.707865169 L25.2458959,25.8443921 L0,25.8443921 L0,50.9809191 L25.2458959,50.9809191 L25.2458959,101.344392 L0,101.344392 L0,126.480919 L25.2458959,126.480919 L25.2458959,151.707865 L50.4917918,151.707865 L50.4917918,126.571338 L75.7376877,126.571338 L75.7376877,151.707865 L100.983584,151.707865 L100.983584,126.571338 L105.417451,126.571338 C133.287472,126.571338 155.999729,104.056967 155.999729,76.2078652 C156.090217,48.4491825 133.468446,25.8443921 105.507938,25.8443921 M105.507938,101.434811 L50.5822789,101.434811 L50.5822789,51.0713382 L105.598425,51.0713382 C119.533435,51.0713382 130.844321,62.3737334 130.844321,76.2078652 C130.844321,90.1324161 119.442948,101.434811 105.507938,101.434811" id="Shape"></path>
            <path d="M221.700809,37.7078652 L191,37.7078652 L191,112.707865 L221.700809,112.707865 C242.87062,112.707865 259,96.4308868 259,75.2078652 C259,53.9848436 242.87062,37.7078652 221.700809,37.7078652 Z M221.700809,96.2510306 L208.504043,96.2510306 L208.504043,54.2546278 L221.609164,54.2546278 C233.706199,54.2546278 241.954178,62.438081 241.954178,75.2977932 C241.954178,88.1575055 233.706199,96.2510306 221.700809,96.2510306 Z" id="Shape"></path>
            <path d="M282.411576,92.7221509 L321.358521,92.7221509 C321.81672,90.6411985 322,88.5602461 322,86.2078652 C322,69.9221509 310.178457,57.7078652 294.141479,57.7078652 C276.821543,57.7078652 265,70.1031033 265,86.2078652 C265,102.312627 276.638264,114.707865 295.332797,114.707865 C305.779743,114.707865 313.844051,110.907865 319.250804,103.579294 L306.146302,96.1602461 C303.946945,98.5126271 300.098071,100.231675 295.607717,100.231675 C289.559486,100.322151 284.519293,98.3316747 282.411576,92.7221509 Z M282.136656,80.6888175 C283.694534,75.1697699 287.818328,72.1840556 294.049839,72.1840556 C298.998392,72.1840556 303.946945,74.4459604 305.688103,80.6888175 L282.136656,80.6888175 Z" id="Shape"></path>
            <path d="M348,70.3822073 L348,60.7933915 L332,60.7933915 L332,114.707865 L348,114.707865 L348,90.2835231 C348,79.609181 357.385475,76.8953652 364,77.9808915 L364,59.7078652 C357.296089,59.7078652 350.145251,63.1453652 348,70.3822073 Z" id="Path"></path>
            <path d="M381,55.2976682 C386.462963,55.2976682 391,50.8121525 391,45.5027667 C391,40.1933808 386.462963,35.7078652 381,35.7078652 C375.537037,35.7078652 371,40.1933808 371,45.5027667 C371,50.8121525 375.537037,55.2976682 381,55.2976682 Z M372.666667,114.707865 L389.240741,114.707865 L389.240741,60.1493484 L372.666667,60.1493484 L372.666667,114.707865 Z" id="Shape"></path>
            <path d="M431.202177,57.7948217 C423.986003,57.7948217 418.664075,60.2378299 415.14619,64.3999921 L415.14619,37.7078652 L399,37.7078652 L399,113.169675 L415.14619,113.169675 L415.14619,108.102695 C418.664075,112.174375 423.986003,114.707865 431.202177,114.707865 C445.363919,114.707865 457,102.31186 457,86.2061025 C456.909798,70.1908264 445.273717,57.7948217 431.202177,57.7948217 Z M427.954899,99.4164433 C420.468118,99.4164433 415.14619,94.3494633 415.14619,86.2965843 C415.14619,78.2437054 420.55832,73.1767253 427.954899,73.1767253 C435.44168,73.1767253 440.763608,78.2437054 440.763608,86.2965843 C440.763608,94.3494633 435.351477,99.4164433 427.954899,99.4164433 Z" id="Shape"></path>
            <path d="M476,55.2976682 C481.462963,55.2976682 486,50.8121525 486,45.5027667 C486,40.1933808 481.462963,35.7078652 476,35.7078652 C470.537037,35.7078652 466,40.1933808 466,45.5027667 C466,50.8121525 470.537037,55.2976682 476,55.2976682 Z M467.666667,114.707865 L484.240741,114.707865 L484.240741,60.1493484 L467.666667,60.1493484 L467.666667,114.707865 Z" id="Shape"></path>
            <path d="M527.912281,74.5316314 L527.912281,58.9373591 L517.122807,58.9373591 L517.122807,43.7078652 L501.421053,48.6323722 L501.421053,58.9373591 L493,58.9373591 L493,74.622826 L501.421053,74.622826 L501.421053,93.8648812 C501.421053,109.094375 507.385965,115.477995 528,113.289326 L528,98.42461 C521.070175,98.8805828 517.210526,98.42461 517.210526,93.7736867 L517.210526,74.5316314 L527.912281,74.5316314 Z" id="Path"></path>
        </g>
    </g>
</svg>